<?xml version="1.0" standalone="no"?>
<!DOCTYPE svg PUBLIC "-//W3C//DTD SVG 20010904//EN"
 "http://www.w3.org/TR/2001/REC-SVG-20010904/DTD/svg10.dtd">
<svg version="1.0" xmlns="http://www.w3.org/2000/svg"
 width="412.000000pt" height="356.000000pt" viewBox="0 0 412.000000 356.000000"
 preserveAspectRatio="xMidYMid meet">

<g transform="translate(0.000000,356.000000) scale(0.100000,-0.100000)"
fill="#000000" stroke="none">
<path d="M1576 2835 c-21 -7 -51 -26 -68 -42 -37 -35 -88 -138 -95 -192 l-6
-41 -53 0 -54 0 -21 45 c-33 70 -50 75 -249 75 -203 0 -219 -5 -255 -85 -11
-25 -23 -33 -66 -44 -66 -17 -138 -85 -157 -147 -18 -60 -17 -1397 0 -1455 14
-46 69 -108 120 -136 29 -16 66 -18 323 -21 242 -3 293 -1 310 11 17 13 18 18
7 41 l-12 26 -294 0 -295 0 -37 32 c-67 59 -64 28 -64 776 l0 678 23 44 c27
54 73 83 142 90 45 5 50 8 58 35 25 84 14 80 193 83 181 3 181 3 199 -72 l10
-41 114 -3 c125 -3 131 -1 131 54 0 64 49 175 91 205 26 18 48 19 429 19 381
0 403 -1 429 -19 41 -29 91 -141 91 -202 0 -63 -23 -59 379 -59 360 0 367 -1
406 -23 26 -14 48 -37 63 -67 l22 -44 0 -671 c0 -422 -4 -684 -10 -707 -6 -21
-27 -51 -50 -72 l-40 -36 -295 0 -295 0 -12 -26 c-11 -23 -10 -28 7 -41 17
-12 68 -14 305 -11 259 3 289 5 324 22 52 26 105 84 122 132 18 52 20 1395 3
1455 -17 55 -65 108 -123 135 -50 24 -55 24 -392 24 l-341 0 -6 41 c-8 58 -61
162 -102 198 -19 16 -51 35 -72 40 -61 17 -788 14 -837 -4z"/>
<path d="M1910 2430 c-102 -11 -139 -21 -220 -55 -310 -130 -510 -428 -510
-761 0 -418 309 -764 728 -814 426 -52 825 247 901 674 23 124 9 288 -34 411
-125 359 -486 587 -865 545z m280 -91 c261 -71 467 -278 535 -534 106 -402
-146 -821 -555 -921 -71 -17 -269 -17 -340 0 -356 87 -601 418 -577 776 8 109
28 185 77 285 94 192 267 336 475 393 101 29 285 29 385 1z"/>
<path d="M1885 2244 c-285 -56 -494 -283 -520 -566 -6 -63 -4 -76 10 -88 31
-25 48 0 61 86 12 89 18 111 47 174 84 184 248 301 465 332 74 10 82 13 82 33
0 47 -27 53 -145 29z"/>
</g>
</svg>
